# xmcd
#
# Track frame offsets:
#	150
#	17277
#	28587
#	52127
#	67732
#	81582
#	97515
#	111557
#	119922
#	134175
#	150247
#	164587
#	177212
#	190075
#	200755
#	213067
#
# Disc length: 3017 seconds
#
# Revision: 1
# Processed by: cddbd v1.5.2PL0 Copyright (c) Steve Scherf et al.
# Submitted via: audiograbber 1.83.01
#
DISCID=de0bc710
DTITLE=Various Artist - mamma italia
DYEAR=1900
DGENRE=italiana
TTITLE0=Sergio endrigo - io che amo solo te
TTITLE1=Rita Pavone - fortissimo
TTITLE2=Lucio Dalla - caruso
TTITLE3=Wes and Dori Ghezzi - tu nella mia vita
TTITLE4=Luigi Tengo - ciao amore, ciao
TTITLE5=Gino Paoli - sapore di sale
TTITLE6=Gianni Morandi - c´era un ragazzo che come me amava i beatles i rolling
TTITLE6=s stone
TTITLE7=Domenico Modugno - nel blu ddipinto di blu
TTITLE8=Nico Fidenco - a casa di erene
TTITLE9=Edoardo Vianello - o mio segnore
TTITLE10=Bobby Solo - una lacrima sul viso
TTITLE11=Little Tony - cuore matto
TTITLE12=Ornela Vanoni - io ti daro di piu
TTITLE13=Domenico Modugno - piove
TTITLE14=Jimmy Fontana - il mondo
TTITLE15=Gianni Morandi - se non avessi piu te
EXTD=
EXTT0=
EXTT1=
EXTT2=
EXTT3=
EXTT4=
EXTT5=
EXTT6=
EXTT7=
EXTT8=
EXTT9=
EXTT10=
EXTT11=
EXTT12=
EXTT13=
EXTT14=
EXTT15=
PLAYORDER=
